<?xml version="1.0" encoding="utf-8"?>
<!-- Generator: Adobe Illustrator 18.1.0, SVG Export Plug-In . SVG Version: 6.00 Build 0)  -->
<svg version="1.1" id="Layer_1" xmlns="http://www.w3.org/2000/svg" xmlns:xlink="http://www.w3.org/1999/xlink" x="0px" y="0px"
	 viewBox="0 0 23.7 29" enable-background="new 0 0 23.7 29" xml:space="preserve">
<g>
	<g>
		<path fill="#737373" d="M9.7,23.6c-1.2,0-2.1,0.9-2.1,2.1c0,1.2,0.9,2.1,2.1,2.1c1.2,0,2.1-0.9,2.1-2.1
			C11.8,24.5,10.9,23.6,9.7,23.6z M9.7,26.6c-0.5,0-0.9-0.4-0.9-0.9s0.4-0.9,0.9-0.9s0.9,0.4,0.9,0.9S10.2,26.6,9.7,26.6z"/>
		<path fill="#737373" d="M16.8,23.6c-1.2,0-2.1,0.9-2.1,2.1c0,1.2,0.9,2.1,2.1,2.1c1.2,0,2.1-0.9,2.1-2.1
			C18.9,24.5,17.9,23.6,16.8,23.6z M16.8,26.6c-0.5,0-0.9-0.4-0.9-0.9s0.4-0.9,0.9-0.9s0.9,0.4,0.9,0.9S17.3,26.6,16.8,26.6z"/>
		<path fill="#737373" d="M4.8,11.6H2.7c-0.4,0-0.7-0.3-0.7-0.7v0c0-0.4,0.3-0.7,0.7-0.7h2.1c0.4,0,0.7,0.3,0.7,0.7v0
			C5.5,11.3,5.2,11.6,4.8,11.6z"/>
		<path fill="#737373" d="M21,14.5H5.9c-0.4,0-0.7-0.3-0.7-0.7v0c0-0.4,0.3-0.7,0.7-0.7H21c0.4,0,0.7,0.3,0.7,0.7v0
			C21.7,14.1,21.4,14.5,21,14.5z"/>
		<path fill="#737373" d="M21.7,13.9l-2.1,8.5c-0.1,0.4-0.5,0.6-0.9,0.5h0c-0.4-0.1-0.6-0.5-0.5-0.9l2.1-8.5
			c0.1-0.4,0.5-0.6,0.9-0.5l0,0C21.6,13.2,21.8,13.6,21.7,13.9z"/>
		<path fill="#737373" d="M11.8,13.8l0,8.4c0,0.4-0.3,0.7-0.7,0.7h0c-0.4,0-0.7-0.3-0.7-0.7l0-8.4c0-0.4,0.3-0.7,0.7-0.7h0
			C11.5,13.1,11.8,13.4,11.8,13.8z"/>
		<path fill="#737373" d="M16.8,13.8l0,8.4c0,0.4-0.3,0.7-0.7,0.7l0,0c-0.4,0-0.7-0.3-0.7-0.7l0-8.4c0-0.4,0.3-0.7,0.7-0.7h0
			C16.5,13.1,16.8,13.4,16.8,13.8z"/>
		<path fill="#737373" d="M19.8,17.2l-12.9,0c-0.4,0-0.7-0.3-0.7-0.7v0c0-0.4,0.3-0.7,0.7-0.7l12.9,0c0.4,0,0.7,0.3,0.7,0.7v0
			C20.5,16.9,20.2,17.2,19.8,17.2z"/>
		<path fill="#737373" d="M19.5,20.1l-11.7,0c-0.4,0-0.7-0.3-0.7-0.7v0c0-0.4,0.3-0.7,0.7-0.7l11.7,0c0.4,0,0.7,0.3,0.7,0.7v0
			C20.2,19.7,19.9,20,19.5,20.1z"/>
		<path fill="#737373" d="M14.9,26.4l-3.3,0c-0.4,0-0.7-0.3-0.7-0.7l0,0c0-0.4,0.3-0.7,0.7-0.7l3.3,0c0.4,0,0.7,0.3,0.7,0.7l0,0
			C15.6,26.1,15.3,26.4,14.9,26.4z"/>
		<path fill="#737373" d="M19.6,26.4l-0.9,0c-0.4,0-0.7-0.3-0.7-0.7v0c0-0.4,0.3-0.7,0.7-0.7l0.9,0c0.4,0,0.7,0.3,0.7,0.7v0
			C20.3,26.1,20,26.4,19.6,26.4z"/>
		<path fill="#737373" d="M4.2,11.1l3.4,10.9c0.1,0.4,0.5,0.6,0.9,0.5h0C8.8,22.4,9,22,8.9,21.6L5.5,10.7c-0.1-0.4-0.5-0.6-0.9-0.5
			l0,0C4.3,10.4,4,10.8,4.2,11.1z"/>
		<path fill="#737373" d="M6.9,24L6.9,24c0-0.6,0.5-1.1,1.1-1.1h11.2v-1.1c-0.3-0.2-0.7-0.3-1-0.3H7.8c-1.2,0-2.2,1-2.2,2.2v0.4
			c0,1.2,1,2.2,2.2,2.2h0.9V25H7.9C7.4,25,6.9,24.5,6.9,24z"/>
	</g>
	<polygon display="none" fill="#737373" points="20.6,3.6 18.2,1.2 12,7.3 9,4.3 6.6,6.7 12.1,12.2 12.1,12.2 12.1,12.2 	"/>
</g>
</svg>



<svg version="1.1" id="Layer_1" xmlns="http://www.w3.org/2000/svg" xmlns:xlink="http://www.w3.org/1999/xlink" x="0px" y="0px"
	 viewBox="0 0 23.7 29" enable-background="new 0 0 23.7 29" xml:space="preserve"><g style="pointer-events:all"><title style="pointer-events: none" opacity="0.33">Layer 1</title><g style="pointer-events:inherit" id="svg_1" fill-opacity="1"><g style="pointer-events:inherit" id="svg_2"><path fill="#ffed00" d="M9.7,23.6C8.5,23.6 7.6,24.5 7.6,25.7C7.6,26.9 8.5,27.8 9.7,27.8C10.9,27.8 11.8,26.9 11.8,25.7C11.8,24.5 10.9,23.6 9.7,23.6zM9.7,26.6C9.2,26.6 8.8,26.2 8.8,25.7S9.2,24.8 9.7,24.8S10.6,25.2 10.6,25.7S10.2,26.6 9.7,26.6z" style="pointer-events:inherit" id="svg_3"></path><path fill="#ffed00" d="M16.8,23.6C15.6,23.6 14.7,24.5 14.7,25.7C14.7,26.9 15.6,27.8 16.8,27.8C18,27.8 18.9,26.9 18.9,25.7C18.9,24.5 17.9,23.6 16.8,23.6zM16.8,26.6C16.3,26.6 15.9,26.2 15.9,25.7S16.3,24.8 16.8,24.8S17.7,25.2 17.7,25.7S17.3,26.6 16.8,26.6z" style="pointer-events:inherit" id="svg_4"></path><path fill="#ffed00" d="M4.8,11.6H2.7C2.3,11.6 2,11.3 2,10.9V10.9C2,10.5 2.3,10.2 2.7,10.2H4.8C5.2,10.2 5.5,10.5 5.5,10.9V10.9C5.5,11.3 5.2,11.6 4.8,11.6z" style="pointer-events:inherit" id="svg_5"></path><path fill="#ffed00" d="M21,14.5H5.9C5.5,14.5 5.2,14.2 5.2,13.8V13.8C5.2,13.4 5.5,13.1 5.9,13.1H21C21.4,13.1 21.7,13.4 21.7,13.8V13.8C21.7,14.1 21.4,14.5 21,14.5z" style="pointer-events:inherit" id="svg_6"></path><path fill="#ffed00" d="M21.7,13.9L19.6,22.4C19.5,22.8 19.1,23 18.7,22.9H18.7C18.3,22.8 18.1,22.4 18.2,22L20.3,13.5C20.4,13.1 20.8,12.9 21.2,13L21.2,13C21.6,13.2 21.8,13.6 21.7,13.9z" style="pointer-events:inherit" id="svg_7"></path><path fill="#ffed00" d="M11.8,13.8L11.8,22.2C11.8,22.6 11.5,22.9 11.1,22.9H11.1C10.7,22.9 10.4,22.6 10.4,22.2L10.4,13.8C10.4,13.4 10.7,13.1 11.1,13.1H11.1C11.5,13.1 11.8,13.4 11.8,13.8z" style="pointer-events:inherit" id="svg_8"></path><path fill="#ffed00" d="M16.8,13.8L16.8,22.2C16.8,22.6 16.5,22.9 16.1,22.9L16.1,22.9C15.7,22.9 15.4,22.6 15.4,22.2L15.4,13.8C15.4,13.4 15.7,13.1 16.1,13.1H16.1C16.5,13.1 16.8,13.4 16.8,13.8z" style="pointer-events:inherit" id="svg_9"></path><path fill="#ffed00" d="M19.8,17.2L6.9,17.2C6.5,17.2 6.2,16.9 6.2,16.5V16.5C6.2,16.1 6.5,15.8 6.9,15.8L19.8,15.8C20.2,15.8 20.5,16.1 20.5,16.5V16.5C20.5,16.9 20.2,17.2 19.8,17.2z" style="pointer-events:inherit" id="svg_10" fill-opacity="1" stroke="none" stroke-opacity="1" stroke-width="1" stroke-dasharray="none"></path><path fill="#ffed00" d="M19.5,20.1L7.8,20.1C7.4,20.1 7.1,19.8 7.1,19.4V19.4C7.1,19 7.4,18.7 7.8,18.7L19.5,18.7C19.9,18.7 20.2,19 20.2,19.4V19.4C20.2,19.7 19.9,20 19.5,20.1z" style="pointer-events:inherit" id="svg_11"></path><path fill="#ffed00" d="M14.9,26.4L11.6,26.4C11.2,26.4 10.9,26.1 10.9,25.7L10.9,25.7C10.9,25.3 11.2,25 11.6,25L14.9,25C15.3,25 15.6,25.3 15.6,25.7L15.6,25.7C15.6,26.1 15.3,26.4 14.9,26.4z" style="pointer-events:inherit" id="svg_12"></path><path fill="#ffed00" d="M19.6,26.4L18.7,26.4C18.3,26.4 18,26.1 18,25.7V25.7C18,25.3 18.3,25 18.7,25L19.6,25C20,25 20.3,25.3 20.3,25.7V25.7C20.3,26.1 20,26.4 19.6,26.4z" style="pointer-events:inherit" id="svg_13"></path><path fill="#ffed00" d="M4.2,11.1L7.6,22C7.7,22.4 8.1,22.6 8.5,22.5H8.5C8.8,22.4 9,22 8.9,21.6L5.5,10.7C5.4,10.3 5,10.1 4.6,10.2L4.6,10.2C4.3,10.4 4,10.8 4.2,11.1z" style="pointer-events:inherit" id="svg_14"></path><path fill="#ffed00" d="M6.9,24L6.9,24C6.9,23.4 7.4,22.9 8,22.9H19.2V21.8C18.9,21.6 18.5,21.5 18.2,21.5H7.8C6.6,21.5 5.6,22.5 5.6,23.7V24.1C5.6,25.3 6.6,26.3 7.8,26.3H8.7V25H7.9C7.4,25 6.9,24.5 6.9,24z" style="pointer-events:inherit" id="svg_15"></path></g><polygon fill="#9e9fdc" points="20.6,3.6 18.2,1.2 12,7.3 9,4.3 6.6,6.7 12.1,12.2 12.1,12.2 12.1,12.2  " style="pointer-events: inherit" id="svg_16" fill-opacity="1" stroke="none" stroke-opacity="1" stroke-width="1" stroke-dasharray="none"></polygon></g></g></svg>


<svg width="23.7" height="29" xmlns="http://www.w3.org/2000/svg">
	<g>
		<title>Layer 1</title>
		<g id="svg_1">
			<g id="svg_2">
				<path id="svg_3" d="m9.575,19.35c-1.2,0 -2.1,0.9 -2.1,2.1c0,1.2 0.9,2.1 2.1,2.1c1.2,0 2.1,-0.9 2.1,-2.1c0,-1.2 -0.9,-2.1 -2.1,-2.1zm0,3c-0.5,0 -0.9,-0.4 -0.9,-0.9s0.4,-0.9 0.9,-0.9s0.9,0.4 0.9,0.9s-0.4,0.9 -0.9,0.9z" fill="#cccccc"/>
				<path id="svg_4" d="m16.675,19.35c-1.2,0 -2.1,0.9 -2.1,2.1c0,1.2 0.9,2.1 2.1,2.1c1.2,0 2.1,-0.9 2.1,-2.1c0,-1.2 -1,-2.1 -2.1,-2.1zm0,3c-0.5,0 -0.9,-0.4 -0.9,-0.9s0.4,-0.9 0.9,-0.9s0.9,0.4 0.9,0.9s-0.4,0.9 -0.9,0.9z" fill="#cccccc"/>
				<path id="svg_5" d="m4.675,7.35h-2.1c-0.4,0 -0.7,-0.3 -0.7,-0.7v0c0,-0.4 0.3,-0.7 0.7,-0.7h2.1c0.4,0 0.7,0.3 0.7,0.7v0c0,0.4 -0.3,0.7 -0.7,0.7z" fill="#cccccc"/>
				<path id="svg_6" d="m20.875,10.25h-15.1c-0.4,0 -0.7,-0.3 -0.7,-0.7v0c0,-0.4 0.3,-0.7 0.7,-0.7h15.1c0.4,0 0.7,0.3 0.7,0.7v0c0,0.3 -0.3,0.7 -0.7,0.7z" fill="#cccccc"/>
				<path id="svg_7" d="m21.575,9.65l-2.1,8.5c-0.1,0.4 -0.5,0.6 -0.9,0.5h0c-0.4,-0.1 -0.6,-0.5 -0.5,-0.9l2.1,-8.5c0.1,-0.4 0.5,-0.6 0.9,-0.5l0,0c0.4,0.2 0.6,0.6 0.5,0.9z" fill="#cccccc"/>
				<path id="svg_8" d="m11.675,9.55l0,8.4c0,0.4 -0.3,0.7 -0.7,0.7h0c-0.4,0 -0.7,-0.3 -0.7,-0.7l0,-8.4c0,-0.4 0.3,-0.7 0.7,-0.7h0c0.4,0 0.7,0.3 0.7,0.7z" fill="#cccccc"/>
				<path id="svg_9" d="m16.675,9.55l0,8.4c0,0.4 -0.3,0.7 -0.7,0.7l0,0c-0.4,0 -0.7,-0.3 -0.7,-0.7l0,-8.4c0,-0.4 0.3,-0.7 0.7,-0.7h0c0.4,0 0.7,0.3 0.7,0.7z" fill="#cccccc"/>
				<path id="svg_10" d="m19.675,12.95l-12.9,0c-0.4,0 -0.7,-0.3 -0.7,-0.7v0c0,-0.4 0.3,-0.7 0.7,-0.7l12.9,0c0.4,0 0.7,0.3 0.7,0.7v0c0,0.4 -0.3,0.7 -0.7,0.7z" fill="#cccccc"/>
				<path id="svg_11" d="m19.375,15.85l-11.7,0c-0.4,0 -0.7,-0.3 -0.7,-0.7v0c0,-0.4 0.3,-0.7 0.7,-0.7l11.7,0c0.4,0 0.7,0.3 0.7,0.7v0c0,0.3 -0.3,0.6 -0.7,0.7z" fill="#cccccc"/>
				<path id="svg_12" d="m14.775,22.15l-3.3,0c-0.4,0 -0.7,-0.3 -0.7,-0.7l0,0c0,-0.4 0.3,-0.7 0.7,-0.7l3.3,0c0.4,0 0.7,0.3 0.7,0.7l0,0c0,0.4 -0.3,0.7 -0.7,0.7z" fill="#cccccc"/>
				<path id="svg_13" d="m19.475,22.15l-0.9,0c-0.4,0 -0.7,-0.3 -0.7,-0.7v0c0,-0.4 0.3,-0.7 0.7,-0.7l0.9,0c0.4,0 0.7,0.3 0.7,0.7v0c0,0.4 -0.3,0.7 -0.7,0.7z" fill="#cccccc"/>
				<path id="svg_14" d="m4.075,6.85l3.4,10.9c0.1,0.4 0.5,0.6 0.9,0.5h0c0.3,-0.1 0.5,-0.5 0.4,-0.9l-3.4,-10.9c-0.1,-0.4 -0.5,-0.6 -0.9,-0.5l0,0c-0.3,0.2 -0.6,0.6 -0.4,0.9z" fill="#cccccc"/>
				<path id="svg_15" d="m6.775,19.75l0,0c0,-0.6 0.5,-1.1 1.1,-1.1h11.2v-1.1c-0.3,-0.2 -0.7,-0.3 -1,-0.3h-10.4c-1.2,0 -2.2,1 -2.2,2.2v0.4c0,1.2 1,2.2 2.2,2.2h0.9v-1.3h-0.8c-0.5,0 -1,-0.5 -1,-1z" fill="#cccccc"/>
			</g>
		</g>
	</g>
</svg>


<svg width="18" height="18" xmlns="http://www.w3.org/2000/svg">
	<g>
		<title>Layer 1</title>
		<g id="svg_18">
			<circle fill="#cccccc" stroke-linejoin="null" stroke-linecap="null" cx="8.89744" cy="9.12821" r="8.77193" id="svg_16"/>
			<path fill="#ffffff" stroke-linejoin="null" stroke-linecap="null" d="m6.34591,6.89089l2.77479,2.49441l2.71226,-2.56366l1.58652,1.42685l-4.2623,4.02731l-4.36127,-3.91848" id="svg_17"/>
		</g>
	</g>
</svg>